<svg xmlns="http://www.w3.org/2000/svg" xmlns:xlink="http://www.w3.org/1999/xlink" width="857" height="784" viewBox="0 0 857 784">
  <defs>
    <filter id="Line_2" x="146.49" y="295.49" width="278.02" height="28.52" filterUnits="userSpaceOnUse">
      <feOffset dy="3" input="SourceAlpha"/>
      <feGaussianBlur stdDeviation="3" result="blur"/>
      <feFlood flood-color="#a3a3a3" flood-opacity="0.161"/>
      <feComposite operator="in" in2="blur"/>
      <feComposite in="SourceGraphic"/>
    </filter>
    <filter id="Line_4" x="132.457" y="367.457" width="200.087" height="29.587" filterUnits="userSpaceOnUse">
      <feOffset dy="3" input="SourceAlpha"/>
      <feGaussianBlur stdDeviation="3" result="blur-2"/>
      <feFlood flood-color="#a3a3a3" flood-opacity="0.161"/>
      <feComposite operator="in" in2="blur-2"/>
      <feComposite in="SourceGraphic"/>
    </filter>
  </defs>
  <g id="Group_5" data-name="Group 5" transform="translate(-546 -148)">
    <g id="Group_4" data-name="Group 4">
      <g id="Group_3" data-name="Group 3">
        <g id="Path_3" data-name="Path 3" transform="translate(546 148)" fill="rgba(18,18,18,0.84)">
          <path d="M 856.5 783.5 L 0.5 783.5 L 0.5 0.5 L 856.5 0.5 L 856.5 783.5 Z" stroke="none"/>
          <path d="M 1 1 L 1 783 L 856 783 L 856 1 L 1 1 M 0 0 L 857 0 L 857 784 L 0 784 L 0 0 Z" stroke="none" fill="#28233d"/>
        </g>
        <g id="Group_2" data-name="Group 2" transform="translate(10)">
          <g id="Path_4" data-name="Path 4" transform="translate(668 248)" fill="#d6d6d6">
            <path d="M 292.5 580 C 272.990234375 580 253.4941558837891 578.0347900390625 234.5533905029297 574.158935546875 C 216.0966186523438 570.3821411132812 197.9418487548828 564.7466430664062 180.5935363769531 557.4088745117188 C 163.55908203125 550.2039184570312 147.1289215087891 541.2858276367188 131.7594604492188 530.9024658203125 C 116.5347671508789 520.6168212890625 102.2180023193359 508.8043823242188 89.20677185058594 495.7932434082031 C 76.19561767578125 482.7820129394531 64.38315582275391 468.4652404785156 54.09753799438477 453.2405395507812 C 43.71415328979492 437.8710632324219 34.79607772827148 421.44091796875 27.59115409851074 404.4064636230469 C 20.25338554382324 387.0581665039062 14.61784648895264 368.9033813476562 10.84107685089111 350.4466247558594 C 6.965230941772461 331.505859375 5 312.009765625 5 292.5 C 5 272.990234375 6.965230941772461 253.4941558837891 10.84107685089111 234.5533905029297 C 14.61784648895264 216.0966186523438 20.25338554382324 197.9418487548828 27.59115409851074 180.5935363769531 C 34.79607772827148 163.55908203125 43.71415328979492 147.1289215087891 54.09753799438477 131.7594604492188 C 64.38315582275391 116.5347671508789 76.19561767578125 102.2180023193359 89.20677185058594 89.20677185058594 C 102.2180023193359 76.19561767578125 116.5347671508789 64.38315582275391 131.7594604492188 54.09753799438477 C 147.1289215087891 43.71415328979492 163.55908203125 34.79607772827148 180.5935363769531 27.59115409851074 C 197.9418487548828 20.25338554382324 216.0966186523438 14.61784648895264 234.5533905029297 10.84107685089111 C 253.4941558837891 6.965230941772461 272.990234375 5 292.5 5 C 312.009765625 5 331.505859375 6.965230941772461 350.4466247558594 10.84107685089111 C 368.9033813476562 14.61784648895264 387.0581665039062 20.25338554382324 404.4064636230469 27.59115409851074 C 421.44091796875 34.79607772827148 437.8710632324219 43.71415328979492 453.2405395507812 54.09753799438477 C 468.4652404785156 64.38315582275391 482.7820129394531 76.19561767578125 495.7932434082031 89.20677185058594 C 508.8043823242188 102.2180023193359 520.6168212890625 116.5347671508789 530.9024658203125 131.7594604492188 C 541.2858276367188 147.1289215087891 550.2039184570312 163.55908203125 557.4088745117188 180.5935363769531 C 564.7466430664062 197.9418487548828 570.3821411132812 216.0966186523438 574.158935546875 234.5533905029297 C 578.0347900390625 253.4941558837891 580 272.990234375 580 292.5 C 580 312.009765625 578.0347900390625 331.505859375 574.158935546875 350.4466247558594 C 570.3821411132812 368.9033813476562 564.7466430664062 387.0581665039062 557.4088745117188 404.4064636230469 C 550.2039184570312 421.44091796875 541.2858276367188 437.8710632324219 530.9024658203125 453.2405395507812 C 520.6168212890625 468.4652404785156 508.8043823242188 482.7820129394531 495.7932434082031 495.7932434082031 C 482.7820129394531 508.8043823242188 468.4652404785156 520.6168212890625 453.2405395507812 530.9024658203125 C 437.8710632324219 541.2858276367188 421.44091796875 550.2039184570312 404.4064636230469 557.4088745117188 C 387.0581665039062 564.7466430664062 368.9033813476562 570.3821411132812 350.4466247558594 574.158935546875 C 331.505859375 578.0347900390625 312.009765625 580 292.5 580 Z" stroke="none"/>
            <path d="M 292.5 10 C 136.72900390625 10 10 136.72900390625 10 292.5 C 10 448.27099609375 136.72900390625 575 292.5 575 C 448.27099609375 575 575 448.27099609375 575 292.5 C 575 136.72900390625 448.27099609375 10 292.5 10 M 292.5 0 C 454.0432434082031 0 585 130.9567565917969 585 292.5 C 585 454.0432434082031 454.0432434082031 585 292.5 585 C 130.9567565917969 585 0 454.0432434082031 0 292.5 C 0 130.9567565917969 130.9567565917969 0 292.5 0 Z" stroke="none" fill="#272727"/>
          </g>
          <g id="Group_1" data-name="Group 1" transform="translate(0 1.5)">
            <path id="Path_2" data-name="Path 2" d="M0,0H277" transform="translate(707.5 412.5)" fill="none"/>
            <line id="Line_3" data-name="Line 3" x2="277" transform="translate(954.5 596.5)" fill="none" stroke="#a3a3a3" stroke-linecap="round" stroke-width="10"/>
            <path id="Path_1" data-name="Path 1" d="M190,0" transform="translate(1028.5 663.5)" fill="none"/>
            <path id="Path_6" data-name="Path 6" d="M0,1.5,209.063.094l7.549-.051L223,0" transform="translate(986.5 662)" fill="none" stroke="#b4b4b4" stroke-linecap="round" stroke-width="10"/>
            <g transform="matrix(1, 0, 0, 1, 536, 146.5)" filter="url(#Line_2)">
              <line id="Line_2-2" data-name="Line 2" y1="0.5" x2="250" transform="translate(160.5 306.5)" fill="none" stroke="#a3a3a3" stroke-linecap="round" stroke-width="10"/>
            </g>
            <g transform="matrix(1, 0, 0, 1, 536, 146.5)" filter="url(#Line_4)">
              <line id="Line_4-2" data-name="Line 4" y1="1.5" x2="172" transform="translate(146.5 378.5)" fill="none" stroke="#a3a3a3" stroke-linecap="round" stroke-width="10"/>
            </g>
            <text id="IRIS" transform="translate(737 628.5)" fill="#272727" font-size="275" font-family="Herculanum"><tspan x="0" y="0">IRIS</tspan></text>
          </g>
          <g id="Ellipse_2" data-name="Ellipse 2" transform="translate(786 665)" fill="none" stroke="rgba(39,39,39,0.15)" stroke-width="3">
            <circle cx="22.5" cy="22.5" r="22.5" stroke="none"/>
            <circle cx="22.5" cy="22.5" r="21" fill="none"/>
          </g>
          <g id="Path_5" data-name="Path 5" transform="translate(1042 361)" fill="none">
            <path d="M53.5,0A53.5,53.5,0,1,1,0,53.5,53.5,53.5,0,0,1,53.5,0Z" stroke="none"/>
            <path d="M 53.5 8 C 28.41121673583984 8 8 28.41121673583984 8 53.5 C 8 78.58878326416016 28.41121673583984 99 53.5 99 C 78.58878326416016 99 99 78.58878326416016 99 53.5 C 99 28.41121673583984 78.58878326416016 8 53.5 8 M 53.5 0 C 83.0472412109375 0 107 23.9527587890625 107 53.5 C 107 83.0472412109375 83.0472412109375 107 53.5 107 C 23.9527587890625 107 0 83.0472412109375 0 53.5 C 0 23.9527587890625 23.9527587890625 0 53.5 0 Z" stroke="none" fill="rgba(39,39,39,0.15)"/>
          </g>
        </g>
      </g>
    </g>
  </g>
</svg>
